<svg xmlns="http://www.w3.org/2000/svg" width="32" height="32" viewBox="0 0 32 32">
  <path id="Trazado_6" data-name="Trazado 6" d="M38.569,5.98a1.489,1.489,0,0,0-.155.014H30.251a1.391,1.391,0,1,0,0,2.781h4.987L20.924,23.09a1.391,1.391,0,1,0,1.967,1.967L37.205,10.742v4.987a1.391,1.391,0,1,0,2.781,0V7.561A1.391,1.391,0,0,0,38.569,5.98ZM10.781,11.557A2.8,2.8,0,0,0,8,14.338V35.2a2.8,2.8,0,0,0,2.781,2.781H31.642A2.8,2.8,0,0,0,34.424,35.2V17.706l-2.781,2.781V35.2H10.781V14.338H25.493l2.781-2.781Zm0,0" transform="translate(-8 -5.98)" fill="#fff"/>
</svg>
